<?xml version="1.0" standalone="no"?>
<!DOCTYPE svg PUBLIC "-//W3C//DTD SVG 20010904//EN"
 "http://www.w3.org/TR/2001/REC-SVG-20010904/DTD/svg10.dtd">
<svg version="1.0" xmlns="http://www.w3.org/2000/svg"
 width="700.000000pt" height="700.000000pt" viewBox="0 0 700.000000 700.000000"
 preserveAspectRatio="xMidYMid meet">
<metadata>
Created by potrace 1.14, written by Peter Selinger 2001-2017
</metadata>
<g transform="translate(0.000000,700.000000) scale(0.100000,-0.100000)"
fill="#000000" stroke="none">
<path d="M510 6971 c-232 -63 -420 -253 -481 -486 -18 -67 -19 -192 -19 -2985
0 -2793 1 -2918 19 -2985 31 -119 83 -210 174 -303 90 -92 185 -149 307 -183
63 -18 168 -19 2985 -19 2798 0 2923 1 2990 19 236 61 425 250 486 486 18 67
19 192 19 2985 0 2793 -1 2918 -19 2985 -61 236 -250 425 -486 486 -67 18
-191 19 -2990 18 -2750 -1 -2924 -2 -2985 -18z m3405 -1116 c261 -22 411 -56
725 -165 l145 -50 302 0 c214 0 303 -3 303 -11 0 -6 -33 -48 -73 -93 -355
-394 -1514 -1714 -1587 -1806 l-30 -38 440 -583 c242 -321 633 -840 870 -1154
l430 -570 -293 -5 c-291 -5 -292 -6 -354 -33 -184 -80 -551 -173 -802 -202
-491 -56 -967 -3 -1336 149 -133 55 -308 154 -415 234 -47 36 -141 119 -208
186 -303 297 -504 728 -588 1261 -8 50 -19 186 -26 302 -41 728 117 1343 464
1803 71 95 142 175 205 233 113 103 330 255 458 320 370 188 850 266 1370 222z"/>
<path d="M3410 5339 c-74 -10 -180 -31 -234 -46 l-100 -28 3 -755 c1 -415 4
-756 5 -757 1 -1 299 332 663 740 388 436 656 745 649 748 -6 4 -51 18 -101
32 -146 42 -315 66 -505 72 -96 3 -191 7 -210 9 -19 2 -96 -5 -170 -15z"/>
<path d="M2474 4858 c-91 -93 -169 -208 -250 -370 -76 -152 -128 -307 -169
-502 l-35 -166 0 -324 0 -324 40 -184 c63 -296 153 -521 279 -704 60 -85 200
-252 214 -253 4 -1 7 654 7 1454 0 800 -1 1455 -3 1455 -1 0 -39 -37 -83 -82z"/>
<path d="M3206 3154 l-136 -155 0 -638 0 -639 28 -10 c76 -31 286 -64 458 -73
167 -8 194 -7 360 15 182 25 306 53 472 107 62 21 90 34 85 42 -10 17 -1082
1447 -1108 1478 l-22 27 -137 -154z"/>
</g>
</svg>
